Coordinates
version=1
nRows=16
nColumns=36
inDegrees=yes

Units are S.I. units (second, meters, Newtons, ...)
If the header above contains a line with 'inDegrees', this indicates whether rotational values are in degrees (yes) or radians (no).

endheader
time	pelvis_tilt	pelvis_list	pelvis_rotation	pelvis_tx	pelvis_ty	pelvis_tz	hip_flexion_r	hip_adduction_r	hip_rotation_r	knee_angle_r	knee_angle_r_beta	ankle_angle_r	subtalar_angle_r	mtp_angle_r	hip_flexion_l	hip_adduction_l	hip_rotation_l	knee_angle_l	knee_angle_l_beta	ankle_angle_l	subtalar_angle_l	mtp_angle_l	lumbar_extension	lumbar_bending	lumbar_rotation	arm_flex_r	arm_add_r	arm_rot_r	elbow_flex_r	pro_sup_r	arm_flex_l	arm_add_l	arm_rot_l	elbow_flex_l	pro_sup_l
      1.46000000	     -3.61458861	      1.40830178	     -3.29519561	     -0.41621097	      1.23215912	     -0.57658605	     20.00240838	     -3.46172328	     -2.94623587	      6.87308085	      0.11995789	    -20.70174974	      6.04490809	     -7.49892997	     17.48827023	     -3.34152197	    -13.32437672	      9.74225075	      0.17003435	    -10.88084286	      3.31027589	     -7.49892997	     13.91646456	      1.06251270	      6.74965354	    179.62243879	    -63.66913162	    132.92983051	     61.47625903	     79.01918043	    179.13077566	    -79.12285355	    133.26232677	     71.32293255	     85.67933469
      1.47000000	     -3.08386056	      1.30923133	     -3.42098121	     -0.40566957	      1.21020135	     -0.57645203	     20.11408429	     -3.50774448	     -2.71758907	      8.01647948	      0.13991396	    -21.20291917	      5.62359402	     -7.49910549	     17.51060094	     -3.60957375	    -13.43981121	     10.71100791	      0.18694235	    -11.42136654	      3.14911722	     -7.49910549	     14.47418631	      1.67195299	      6.95998902	    179.61714828	    -66.23157967	    129.99684663	     64.79090466	     78.09239561	    178.66804585	    -83.57886553	    129.67751264	     71.76332895	     83.99969353
      1.48000000	     -3.04706931	      1.15976769	     -3.51581531	     -0.39527665	      1.18425255	     -0.57607231	     20.79257020	     -3.45907246	     -2.52139037	      9.41718225	      0.16436084	    -21.73435487	      5.15618423	     -7.50017926	     18.08539607	     -4.00310008	    -13.79163426	     11.89326265	      0.20757659	    -11.86293110	      3.66252504	     -7.50017926	      2.52575171	     -1.95749726	    -13.47713831	    177.84153195	    -75.69531366	    123.38170442	     78.70917358	     76.08629352	     80.82551567	   -155.03294418	     42.13068905	     91.08575470	     64.67835505
      1.49000000	     -2.72278246	      0.97827941	     -3.57352112	     -0.38588142	      1.15578259	     -0.57557899	     21.41463905	     -3.37782077	     -2.17827776	     11.38193550	      0.19865225	    -21.97133025	      4.41614371	     -7.50014444	     18.57213639	     -4.43386685	    -13.81405984	     13.50486758	      0.23570440	    -12.34539869	      3.69807734	     -7.50014444	      2.53512441	     -1.89915397	    -14.23023479	    177.33496556	    -78.74216091	    122.50299927	     81.46207827	     76.01201552	     82.85285639	   -157.89866902	     45.81131178	     90.17581310	     65.37272274
      1.50000000	     -2.31319872	      0.71990608	     -3.53201814	     -0.37629973	      1.12795277	     -0.57540123	     22.10715195	     -3.22046645	     -1.77300650	     13.82079960	      0.24121846	    -21.81778516	      3.46126698	     -7.50013798	     19.16177956	     -4.94718063	    -13.61955042	     15.52877307	      0.27102822	    -12.52867070	      3.63706968	     -7.50013798	      2.25044904	     -1.80891021	    -15.17428523	    176.74128556	    -82.03679478	    121.82985619	     84.29429511	     75.96779253	     85.01308383	   -160.78846525	     49.61007889	     88.97491907	     65.71232721
      1.51000000	     -1.89039906	      0.39592547	     -3.35553701	     -0.36658269	      1.10143956	     -0.57545021	     23.03025871	     -3.01564724	     -1.45980909	     16.92449641	      0.29538819	    -21.01396106	      2.34027306	     -7.50012869	     19.99177257	     -5.52375323	    -13.14052380	     18.11759648	      0.31621171	    -12.14972857	      3.28130862	     -7.50012869	      1.81106246	     -1.52432099	    -16.31451582	    175.13033940	    -85.82031685	    120.05658933	     87.96297264	     75.92983897	     87.33352401	   -163.96510744	     54.49428100	     87.36575687	     66.38149668
      1.52000000	     -1.63047462	      0.13588681	     -3.17804860	     -0.35711728	      1.07613539	     -0.57480640	     24.34602967	     -2.79163925	     -1.00908092	     20.70453096	      0.36136224	    -19.10087956	      0.87939566	     -7.50009692	     21.17693047	     -6.08645194	    -12.35798838	     21.33599219	      0.37238331	    -10.86079605	      2.78365641	     -7.50009692	     -1.78279811	      0.41270753	      1.86933991	     85.59939830	   -130.16901904	     33.47381253	    100.50897600	     64.90475775	     95.85887804	   -144.85768953	     62.19738086	     90.44966039	     74.14726121
      1.53000000	     -1.03462785	     -0.28059303	     -2.78764007	     -0.34952408	      1.05190924	     -0.57451286	     25.50770132	     -2.51148574	     -0.85896915	     25.16258857	      0.43917002	    -16.28313357	     -0.66557182	     -7.50009192	     22.36980346	     -6.70717161	    -11.09268632	     25.34223619	      0.44230546	     -8.85356147	      1.96746062	     -7.50009192	     -2.78272162	      1.14372746	      1.11479274	     91.61221474	   -131.62378016	     39.65354738	    104.85153953	     65.14217401	     99.76997081	   -148.55781287	     69.20689709	     88.71183655	     74.64991367
      1.54000000	     -0.41772546	     -0.62725268	     -2.31810361	     -0.34317827	      1.02797947	     -0.57402161	     26.81678024	     -2.28506248	     -0.78756683	     30.15111045	      0.52623615	    -12.56212306	     -2.20457194	     -7.50008799	     23.82256616	     -7.23399385	     -9.64107163	     29.95209807	      0.52276273	     -6.27787178	      1.07198580	     -7.50008799	     -4.00142454	      1.60340216	      0.50283141	     98.27795986	   -133.85290669	     47.50338956	    108.65954017	     65.52364701	    103.45484574	   -151.53018818	     76.16512185	     86.10884084	     75.49975200
      1.55000000	      0.04249351	     -0.77354151	     -2.05127721	     -0.33822165	      1.00515503	     -0.57315364	     28.50144158	     -2.11143284	     -0.47788013	     35.50379013	      0.61965803	     -8.13518668	     -3.67358755	     -7.50008345	     25.60995221	     -7.62332985	     -8.38118977	     34.91803191	      0.60943463	     -3.36173494	      0.11671837	     -7.50008345	     -5.10223685	      1.50375832	     -0.35241129	    105.76697657	   -135.67310956	     57.50523361	    111.47997224	     66.41756585	    106.49804804	   -154.43407802	     83.38804401	     83.53876915	     78.16975249
      1.56000000	      0.72246082	     -1.10467724	     -1.40520502	     -0.33493276	      0.98562483	     -0.57265946	     29.81588374	     -1.95816553	     -0.71834300	     40.67625004	      0.70993449	     -3.31048393	     -4.86909014	     -7.50006101	     27.42623090	     -7.92484365	     -6.57244636	     40.19907288	      0.70160618	      0.02280337	     -0.65495274	     -7.50006101	     -6.30576510	      1.73717602	     -1.86972229	    112.64460896	   -137.40942551	     68.72861857	    114.45682873	     71.79872197	    110.58598506	   -157.26896604	     90.17031345	     81.01125513	     89.51069739
      1.57000000	      1.36512276	     -1.32336667	     -0.87760795	     -0.33343783	      0.96853038	     -0.57163227	     31.26504748	     -1.84725510	     -0.86020953	     45.87789232	      0.80072027	      1.84448969	     -5.72561064	     -7.50006380	     29.24952297	     -8.08818295	     -4.95670912	     45.45748004	      0.79338270	      3.67812765	     -1.22628888	     -7.50006380	     -7.57915643	      1.97704498	     -1.90915337	    118.02263089	   -141.13620288	     79.13979910	    117.38094271	     73.05030924	    115.72001443	   -158.29939741	     98.37651008	     78.62177803	     91.41568778
      1.58000000	      1.95826035	     -1.54160750	     -0.31868855	     -0.33329153	      0.95321958	     -0.57105708	     32.73611949	     -1.71037837	     -0.97560417	     50.87878025	      0.88800223	      6.86144947	     -6.45757305	     -7.50006859	     31.06144829	     -8.12317827	     -3.32019649	     50.55250018	      0.88230757	      7.35712747	     -1.77914750	     -7.50006859	     -8.83374356	      2.08062347	     -2.22600207	    123.48478370	   -144.00422218	     89.96192965	    119.43311471	     74.96165630	    120.88589994	   -159.58293744	    106.16548897	     76.12865526	     94.05041460
      1.59000000	      2.55113206	     -1.75463061	      0.30430286	     -0.33416077	      0.93968341	     -0.57148992	     34.12403151	     -1.58084327	     -1.12822872	     55.55607155	      0.96963637	     11.40062010	     -7.28524480	     -7.50006733	     32.80893640	     -8.00427527	     -1.66619149	     55.37799978	      0.96652843	     10.79659682	     -2.38211741	     -7.50006733	    -10.14779135	      1.80131921	     -3.68543277	    130.70895373	   -145.25952335	    102.24552696	    119.65821677	     80.84388748	    125.80960885	   -162.16528667	    111.61039940	     73.97898531	     96.87972940
      1.60000000	      3.01619216	     -1.89481260	      0.83869729	     -0.33555733	      0.92743068	     -0.57226023	     35.54209738	     -1.47802432	     -1.18480968	     59.82586473	      1.04415832	     15.60664374	     -7.87408655	     -7.50007372	     34.54778940	     -7.76142838	     -0.21180494	     59.81713802	      1.04400601	     14.08053576	     -2.85267160	     -7.50007372	    -11.51132413	      1.63781922	     -3.73424418	    136.66324298	   -148.05229034	    111.69149658	    118.86511897	     86.21386993	    132.07147599	   -163.23208896	    117.43716589	     71.27510613	     99.46567266
      1.61000000	      3.39540805	     -2.02493533	      1.38265950	     -0.33754695	      0.91672421	     -0.57218848	     36.84525236	     -1.37025385	     -1.23925515	     63.50190401	      1.10831731	     19.28744675	     -8.33376297	     -7.50007670	     36.21636008	     -7.43475467	      1.14945422	     63.76329886	      1.11287951	     16.99821028	     -3.35717285	     -7.50007670	    -12.93014741	      1.51230606	     -3.34917944	    142.25223218	   -151.12019239	    119.39747509	    117.08350382	     90.30667646	    138.85549742	   -163.85668934	    123.20224256	     68.58799445	     99.17523741
